<svg width="64" height="64" viewBox="0 0 64 64" fill="none" xmlns="http://www.w3.org/2000/svg">
<g clip-path="url(#clip0_2_6)">
<path d="M39.24 23.116L32.834 29.076L26.89 17.086L29.966 10.19C30.766 8.79 32.014 8.806 32.794 10.19L39.24 23.116Z" fill="#B7B7B7"/>
<path d="M26.89 17.086L32.834 29.076L8.894 51.346L26.89 17.086Z" fill="#979696"/>
<path d="M46.246 14.006C47.39 12.906 48.574 13.282 48.876 14.84L55.108 51.05L34.452 63.45C33.732 63.85 31.812 64.022 31.812 64.022C31.812 64.022 30.064 63.814 29.398 63.422L8.894 51.346L46.246 14.006Z" fill="#D3D3D3"/>
<path d="M26.89 17.086L8.896 51.346L16.91 1.276C17.206 -0.284001 18.094 -0.434002 18.886 0.941998L26.89 17.086Z" fill="#B7B7B7"/>
</g>
<defs>
<clipPath id="clip0_2_6">
<rect width="64" height="64" fill="white"/>
</clipPath>
</defs>
</svg>
