<svg width="20" height="14" viewBox="0 0 20 14" fill="none" xmlns="http://www.w3.org/2000/svg">
<path d="M16.5 4.51C15.7501 4.25171 15.0881 3.78729 14.59 3.17C14.041 2.48224 13.3421 1.92914 12.5465 1.55303C11.7509 1.17691 10.8799 0.98775 10 1C8.81637 0.91618 7.64458 1.28125 6.71801 2.02251C5.79143 2.76377 5.17804 3.82684 5 5C5.35067 4.41325 5.87845 3.95287 6.50739 3.68512C7.13633 3.41737 7.834 3.35606 8.5 3.51C9.24869 3.77581 9.90958 4.24293 10.41 4.86C10.962 5.54228 11.6623 6.08966 12.4577 6.46049C13.2531 6.83133 14.1226 7.01585 15 7C16.1836 7.08383 17.3554 6.71876 18.282 5.9775C19.2086 5.23624 19.822 4.17317 20 3C19.6557 3.59378 19.1296 4.06111 18.4994 4.33301C17.8691 4.6049 17.1682 4.66696 16.5 4.51ZM3.5 9.49C4.24995 9.7483 4.91192 10.2127 5.41 10.83C5.95895 11.5178 6.65794 12.0709 7.4535 12.447C8.24906 12.8231 9.1201 13.0123 10 13C11.1836 13.0838 12.3554 12.7188 13.282 11.9775C14.2086 11.2362 14.822 10.1732 15 9C14.6493 9.58676 14.1215 10.0471 13.4926 10.3149C12.8637 10.5826 12.166 10.6439 11.5 10.49C10.7513 10.2242 10.0904 9.75707 9.59 9.14001C9.03656 8.45942 8.33595 7.91324 7.54091 7.54257C6.74587 7.17189 5.8771 6.98638 5 7C3.81637 6.91618 2.64458 7.28125 1.71801 8.02251C0.791428 8.76377 0.178042 9.82684 0 11C0.344307 10.4062 0.870408 9.9389 1.50063 9.667C2.13086 9.39511 2.83181 9.33305 3.5 9.49Z" fill="#BDBCBC"/>
</svg>
